<mxfile host="Electron" agent="Mozilla/5.0 (Windows NT 10.0; Win64; x64) AppleWebKit/537.36 (KHTML, like Gecko) draw.io/28.2.5 Chrome/138.0.7204.251 Electron/37.6.1 Safari/537.36" version="28.2.5">
  <diagram name="Página-1" id="GC05-0I16nLp6_O05Fju">
    <mxGraphModel dx="1281" dy="660" grid="1" gridSize="10" guides="1" tooltips="1" connect="1" arrows="1" fold="1" page="1" pageScale="1" pageWidth="1600" pageHeight="900" math="0" shadow="0">
      <root>
        <mxCell id="0" />
        <mxCell id="1" parent="0" />
        <mxCell id="a_NJxbyLy0bWbnUy5ZYN-10" style="edgeStyle=orthogonalEdgeStyle;rounded=0;orthogonalLoop=1;jettySize=auto;html=1;exitX=0;exitY=0.75;exitDx=0;exitDy=0;entryX=0.5;entryY=0;entryDx=0;entryDy=0;" edge="1" parent="1" source="a_NJxbyLy0bWbnUy5ZYN-1" target="a_NJxbyLy0bWbnUy5ZYN-4">
          <mxGeometry relative="1" as="geometry" />
        </mxCell>
        <mxCell id="a_NJxbyLy0bWbnUy5ZYN-12" style="edgeStyle=orthogonalEdgeStyle;rounded=0;orthogonalLoop=1;jettySize=auto;html=1;exitX=0.25;exitY=1;exitDx=0;exitDy=0;entryX=1;entryY=0.5;entryDx=0;entryDy=0;" edge="1" parent="1" source="a_NJxbyLy0bWbnUy5ZYN-1" target="a_NJxbyLy0bWbnUy5ZYN-2">
          <mxGeometry relative="1" as="geometry" />
        </mxCell>
        <mxCell id="a_NJxbyLy0bWbnUy5ZYN-14" style="edgeStyle=orthogonalEdgeStyle;rounded=0;orthogonalLoop=1;jettySize=auto;html=1;exitX=1;exitY=0.75;exitDx=0;exitDy=0;entryX=0.5;entryY=0;entryDx=0;entryDy=0;" edge="1" parent="1" source="a_NJxbyLy0bWbnUy5ZYN-1" target="a_NJxbyLy0bWbnUy5ZYN-3">
          <mxGeometry relative="1" as="geometry" />
        </mxCell>
        <mxCell id="a_NJxbyLy0bWbnUy5ZYN-19" style="edgeStyle=orthogonalEdgeStyle;rounded=0;orthogonalLoop=1;jettySize=auto;html=1;exitX=0.5;exitY=1;exitDx=0;exitDy=0;" edge="1" parent="1" source="a_NJxbyLy0bWbnUy5ZYN-1" target="a_NJxbyLy0bWbnUy5ZYN-20">
          <mxGeometry relative="1" as="geometry">
            <mxPoint x="140" y="470" as="targetPoint" />
          </mxGeometry>
        </mxCell>
        <mxCell id="a_NJxbyLy0bWbnUy5ZYN-40" style="edgeStyle=orthogonalEdgeStyle;rounded=0;orthogonalLoop=1;jettySize=auto;html=1;exitX=0.25;exitY=1;exitDx=0;exitDy=0;entryX=1;entryY=0.5;entryDx=0;entryDy=0;" edge="1" parent="1" source="a_NJxbyLy0bWbnUy5ZYN-1" target="a_NJxbyLy0bWbnUy5ZYN-8">
          <mxGeometry relative="1" as="geometry" />
        </mxCell>
        <mxCell id="a_NJxbyLy0bWbnUy5ZYN-41" style="edgeStyle=orthogonalEdgeStyle;rounded=0;orthogonalLoop=1;jettySize=auto;html=1;exitX=1;exitY=0.75;exitDx=0;exitDy=0;entryX=0;entryY=0.5;entryDx=0;entryDy=0;" edge="1" parent="1" source="a_NJxbyLy0bWbnUy5ZYN-1" target="a_NJxbyLy0bWbnUy5ZYN-5">
          <mxGeometry relative="1" as="geometry" />
        </mxCell>
        <mxCell id="a_NJxbyLy0bWbnUy5ZYN-42" style="edgeStyle=orthogonalEdgeStyle;rounded=0;orthogonalLoop=1;jettySize=auto;html=1;exitX=1;exitY=0.75;exitDx=0;exitDy=0;entryX=0;entryY=0.5;entryDx=0;entryDy=0;" edge="1" parent="1" source="a_NJxbyLy0bWbnUy5ZYN-1" target="a_NJxbyLy0bWbnUy5ZYN-7">
          <mxGeometry relative="1" as="geometry" />
        </mxCell>
        <mxCell id="a_NJxbyLy0bWbnUy5ZYN-43" style="edgeStyle=orthogonalEdgeStyle;rounded=0;orthogonalLoop=1;jettySize=auto;html=1;exitX=0.25;exitY=1;exitDx=0;exitDy=0;entryX=1;entryY=0.5;entryDx=0;entryDy=0;" edge="1" parent="1" source="a_NJxbyLy0bWbnUy5ZYN-1" target="a_NJxbyLy0bWbnUy5ZYN-6">
          <mxGeometry relative="1" as="geometry" />
        </mxCell>
        <mxCell id="a_NJxbyLy0bWbnUy5ZYN-46" style="edgeStyle=orthogonalEdgeStyle;rounded=0;orthogonalLoop=1;jettySize=auto;html=1;exitX=1;exitY=0.5;exitDx=0;exitDy=0;entryX=0;entryY=0.5;entryDx=0;entryDy=0;" edge="1" parent="1" source="a_NJxbyLy0bWbnUy5ZYN-1" target="a_NJxbyLy0bWbnUy5ZYN-45">
          <mxGeometry relative="1" as="geometry" />
        </mxCell>
        <mxCell id="a_NJxbyLy0bWbnUy5ZYN-1" value="Camioneros" style="rounded=0;whiteSpace=wrap;html=1;" vertex="1" parent="1">
          <mxGeometry x="80" y="40" width="120" height="60" as="geometry" />
        </mxCell>
        <mxCell id="a_NJxbyLy0bWbnUy5ZYN-2" value="DNI" style="ellipse;whiteSpace=wrap;html=1;" vertex="1" parent="1">
          <mxGeometry x="10" y="180" width="70" height="40" as="geometry" />
        </mxCell>
        <mxCell id="a_NJxbyLy0bWbnUy5ZYN-3" value="&lt;u&gt;(PK)&amp;nbsp;&lt;/u&gt;&lt;u&gt;id_Camionero&lt;/u&gt;" style="ellipse;whiteSpace=wrap;html=1;" vertex="1" parent="1">
          <mxGeometry x="280" y="110" width="120" height="80" as="geometry" />
        </mxCell>
        <mxCell id="a_NJxbyLy0bWbnUy5ZYN-4" value="Nombre" style="ellipse;whiteSpace=wrap;html=1;" vertex="1" parent="1">
          <mxGeometry x="10" y="110" width="70" height="50" as="geometry" />
        </mxCell>
        <mxCell id="a_NJxbyLy0bWbnUy5ZYN-5" value="Teléfono" style="ellipse;whiteSpace=wrap;html=1;" vertex="1" parent="1">
          <mxGeometry x="275" y="200" width="80" height="60" as="geometry" />
        </mxCell>
        <mxCell id="a_NJxbyLy0bWbnUy5ZYN-6" value="Dirección" style="ellipse;whiteSpace=wrap;html=1;" vertex="1" parent="1">
          <mxGeometry x="5" y="310" width="80" height="50" as="geometry" />
        </mxCell>
        <mxCell id="a_NJxbyLy0bWbnUy5ZYN-7" value="Población" style="ellipse;whiteSpace=wrap;html=1;" vertex="1" parent="1">
          <mxGeometry x="250" y="270" width="90" height="60" as="geometry" />
        </mxCell>
        <mxCell id="a_NJxbyLy0bWbnUy5ZYN-8" value="Salario" style="ellipse;whiteSpace=wrap;html=1;" vertex="1" parent="1">
          <mxGeometry x="10" y="240" width="80" height="50" as="geometry" />
        </mxCell>
        <mxCell id="a_NJxbyLy0bWbnUy5ZYN-25" style="edgeStyle=orthogonalEdgeStyle;rounded=0;orthogonalLoop=1;jettySize=auto;html=1;exitX=1;exitY=0.5;exitDx=0;exitDy=0;entryX=0;entryY=0.5;entryDx=0;entryDy=0;" edge="1" parent="1" source="a_NJxbyLy0bWbnUy5ZYN-20" target="a_NJxbyLy0bWbnUy5ZYN-21">
          <mxGeometry relative="1" as="geometry" />
        </mxCell>
        <mxCell id="a_NJxbyLy0bWbnUy5ZYN-26" style="edgeStyle=orthogonalEdgeStyle;rounded=0;orthogonalLoop=1;jettySize=auto;html=1;exitX=1;exitY=1;exitDx=0;exitDy=0;entryX=0;entryY=0.5;entryDx=0;entryDy=0;" edge="1" parent="1" source="a_NJxbyLy0bWbnUy5ZYN-20" target="a_NJxbyLy0bWbnUy5ZYN-23">
          <mxGeometry relative="1" as="geometry" />
        </mxCell>
        <mxCell id="a_NJxbyLy0bWbnUy5ZYN-27" style="edgeStyle=orthogonalEdgeStyle;rounded=0;orthogonalLoop=1;jettySize=auto;html=1;exitX=1;exitY=1;exitDx=0;exitDy=0;entryX=0;entryY=0.5;entryDx=0;entryDy=0;" edge="1" parent="1" source="a_NJxbyLy0bWbnUy5ZYN-20" target="a_NJxbyLy0bWbnUy5ZYN-24">
          <mxGeometry relative="1" as="geometry" />
        </mxCell>
        <mxCell id="a_NJxbyLy0bWbnUy5ZYN-39" style="edgeStyle=orthogonalEdgeStyle;rounded=0;orthogonalLoop=1;jettySize=auto;html=1;exitX=0.5;exitY=1;exitDx=0;exitDy=0;entryX=0.5;entryY=0;entryDx=0;entryDy=0;" edge="1" parent="1" source="a_NJxbyLy0bWbnUy5ZYN-20" target="a_NJxbyLy0bWbnUy5ZYN-28">
          <mxGeometry relative="1" as="geometry" />
        </mxCell>
        <mxCell id="a_NJxbyLy0bWbnUy5ZYN-20" value="Llevan" style="rhombus;whiteSpace=wrap;html=1;" vertex="1" parent="1">
          <mxGeometry x="100" y="450" width="80" height="80" as="geometry" />
        </mxCell>
        <mxCell id="a_NJxbyLy0bWbnUy5ZYN-21" value="&lt;u&gt;(PK) Fecha, id_Camionero, id_Camión&lt;/u&gt;" style="ellipse;whiteSpace=wrap;html=1;" vertex="1" parent="1">
          <mxGeometry x="240" y="455" width="140" height="70" as="geometry" />
        </mxCell>
        <mxCell id="a_NJxbyLy0bWbnUy5ZYN-23" value="&lt;u&gt;(FK)&amp;nbsp;&lt;/u&gt;&lt;u&gt;id_Camionero&lt;/u&gt;" style="ellipse;whiteSpace=wrap;html=1;" vertex="1" parent="1">
          <mxGeometry x="250" y="530" width="120" height="60" as="geometry" />
        </mxCell>
        <mxCell id="a_NJxbyLy0bWbnUy5ZYN-24" value="&lt;u&gt;(FK)&amp;nbsp;&lt;/u&gt;&lt;u&gt;id_Camión&lt;/u&gt;" style="ellipse;whiteSpace=wrap;html=1;" vertex="1" parent="1">
          <mxGeometry x="200" y="600" width="120" height="60" as="geometry" />
        </mxCell>
        <mxCell id="a_NJxbyLy0bWbnUy5ZYN-34" style="edgeStyle=orthogonalEdgeStyle;rounded=0;orthogonalLoop=1;jettySize=auto;html=1;exitX=0.25;exitY=1;exitDx=0;exitDy=0;entryX=1;entryY=0.5;entryDx=0;entryDy=0;" edge="1" parent="1" source="a_NJxbyLy0bWbnUy5ZYN-28" target="a_NJxbyLy0bWbnUy5ZYN-29">
          <mxGeometry relative="1" as="geometry" />
        </mxCell>
        <mxCell id="a_NJxbyLy0bWbnUy5ZYN-35" style="edgeStyle=orthogonalEdgeStyle;rounded=0;orthogonalLoop=1;jettySize=auto;html=1;exitX=0.5;exitY=1;exitDx=0;exitDy=0;entryX=1;entryY=0.5;entryDx=0;entryDy=0;" edge="1" parent="1" source="a_NJxbyLy0bWbnUy5ZYN-28" target="a_NJxbyLy0bWbnUy5ZYN-30">
          <mxGeometry relative="1" as="geometry" />
        </mxCell>
        <mxCell id="a_NJxbyLy0bWbnUy5ZYN-36" style="edgeStyle=orthogonalEdgeStyle;rounded=0;orthogonalLoop=1;jettySize=auto;html=1;exitX=0.75;exitY=1;exitDx=0;exitDy=0;" edge="1" parent="1" source="a_NJxbyLy0bWbnUy5ZYN-28" target="a_NJxbyLy0bWbnUy5ZYN-31">
          <mxGeometry relative="1" as="geometry" />
        </mxCell>
        <mxCell id="a_NJxbyLy0bWbnUy5ZYN-37" style="edgeStyle=orthogonalEdgeStyle;rounded=0;orthogonalLoop=1;jettySize=auto;html=1;exitX=1;exitY=1;exitDx=0;exitDy=0;" edge="1" parent="1" source="a_NJxbyLy0bWbnUy5ZYN-28" target="a_NJxbyLy0bWbnUy5ZYN-32">
          <mxGeometry relative="1" as="geometry" />
        </mxCell>
        <mxCell id="a_NJxbyLy0bWbnUy5ZYN-38" style="edgeStyle=orthogonalEdgeStyle;rounded=0;orthogonalLoop=1;jettySize=auto;html=1;exitX=1;exitY=0.75;exitDx=0;exitDy=0;entryX=0;entryY=0.5;entryDx=0;entryDy=0;" edge="1" parent="1" source="a_NJxbyLy0bWbnUy5ZYN-28" target="a_NJxbyLy0bWbnUy5ZYN-33">
          <mxGeometry relative="1" as="geometry" />
        </mxCell>
        <mxCell id="a_NJxbyLy0bWbnUy5ZYN-28" value="Camiones" style="rounded=1;whiteSpace=wrap;html=1;" vertex="1" parent="1">
          <mxGeometry x="80" y="680" width="120" height="60" as="geometry" />
        </mxCell>
        <mxCell id="a_NJxbyLy0bWbnUy5ZYN-29" value="&lt;u&gt;(PK) id_Camión&lt;/u&gt;" style="ellipse;whiteSpace=wrap;html=1;" vertex="1" parent="1">
          <mxGeometry y="750" width="110" height="50" as="geometry" />
        </mxCell>
        <mxCell id="a_NJxbyLy0bWbnUy5ZYN-30" value="Matrícula" style="ellipse;whiteSpace=wrap;html=1;" vertex="1" parent="1">
          <mxGeometry y="820" width="110" height="50" as="geometry" />
        </mxCell>
        <mxCell id="a_NJxbyLy0bWbnUy5ZYN-31" value="Modelo" style="ellipse;whiteSpace=wrap;html=1;" vertex="1" parent="1">
          <mxGeometry x="150" y="830" width="110" height="50" as="geometry" />
        </mxCell>
        <mxCell id="a_NJxbyLy0bWbnUy5ZYN-32" value="Tipo" style="ellipse;whiteSpace=wrap;html=1;" vertex="1" parent="1">
          <mxGeometry x="260" y="790" width="110" height="50" as="geometry" />
        </mxCell>
        <mxCell id="a_NJxbyLy0bWbnUy5ZYN-33" value="Potencia" style="ellipse;whiteSpace=wrap;html=1;" vertex="1" parent="1">
          <mxGeometry x="255" y="700" width="110" height="50" as="geometry" />
        </mxCell>
        <mxCell id="a_NJxbyLy0bWbnUy5ZYN-54" style="edgeStyle=orthogonalEdgeStyle;rounded=0;orthogonalLoop=1;jettySize=auto;html=1;exitX=0.25;exitY=1;exitDx=0;exitDy=0;entryX=1;entryY=0.5;entryDx=0;entryDy=0;" edge="1" parent="1" source="a_NJxbyLy0bWbnUy5ZYN-44" target="a_NJxbyLy0bWbnUy5ZYN-48">
          <mxGeometry relative="1" as="geometry" />
        </mxCell>
        <mxCell id="a_NJxbyLy0bWbnUy5ZYN-55" style="edgeStyle=orthogonalEdgeStyle;rounded=0;orthogonalLoop=1;jettySize=auto;html=1;exitX=0.25;exitY=1;exitDx=0;exitDy=0;entryX=1;entryY=0.5;entryDx=0;entryDy=0;" edge="1" parent="1" source="a_NJxbyLy0bWbnUy5ZYN-44" target="a_NJxbyLy0bWbnUy5ZYN-49">
          <mxGeometry relative="1" as="geometry" />
        </mxCell>
        <mxCell id="a_NJxbyLy0bWbnUy5ZYN-56" style="edgeStyle=orthogonalEdgeStyle;rounded=0;orthogonalLoop=1;jettySize=auto;html=1;exitX=0.25;exitY=1;exitDx=0;exitDy=0;entryX=1;entryY=0.5;entryDx=0;entryDy=0;" edge="1" parent="1" source="a_NJxbyLy0bWbnUy5ZYN-44" target="a_NJxbyLy0bWbnUy5ZYN-50">
          <mxGeometry relative="1" as="geometry" />
        </mxCell>
        <mxCell id="a_NJxbyLy0bWbnUy5ZYN-57" style="edgeStyle=orthogonalEdgeStyle;rounded=0;orthogonalLoop=1;jettySize=auto;html=1;exitX=0.5;exitY=1;exitDx=0;exitDy=0;entryX=0;entryY=0.5;entryDx=0;entryDy=0;" edge="1" parent="1" source="a_NJxbyLy0bWbnUy5ZYN-44" target="a_NJxbyLy0bWbnUy5ZYN-52">
          <mxGeometry relative="1" as="geometry" />
        </mxCell>
        <mxCell id="a_NJxbyLy0bWbnUy5ZYN-58" style="edgeStyle=orthogonalEdgeStyle;rounded=0;orthogonalLoop=1;jettySize=auto;html=1;exitX=0.5;exitY=1;exitDx=0;exitDy=0;entryX=0;entryY=0.5;entryDx=0;entryDy=0;" edge="1" parent="1" source="a_NJxbyLy0bWbnUy5ZYN-44" target="a_NJxbyLy0bWbnUy5ZYN-53">
          <mxGeometry relative="1" as="geometry" />
        </mxCell>
        <mxCell id="a_NJxbyLy0bWbnUy5ZYN-59" style="edgeStyle=orthogonalEdgeStyle;rounded=0;orthogonalLoop=1;jettySize=auto;html=1;exitX=0.5;exitY=1;exitDx=0;exitDy=0;entryX=0;entryY=0.5;entryDx=0;entryDy=0;" edge="1" parent="1" source="a_NJxbyLy0bWbnUy5ZYN-44" target="a_NJxbyLy0bWbnUy5ZYN-51">
          <mxGeometry relative="1" as="geometry" />
        </mxCell>
        <mxCell id="a_NJxbyLy0bWbnUy5ZYN-62" style="edgeStyle=orthogonalEdgeStyle;rounded=0;orthogonalLoop=1;jettySize=auto;html=1;exitX=1;exitY=0.5;exitDx=0;exitDy=0;entryX=0;entryY=0.5;entryDx=0;entryDy=0;" edge="1" parent="1" source="a_NJxbyLy0bWbnUy5ZYN-44" target="a_NJxbyLy0bWbnUy5ZYN-60">
          <mxGeometry relative="1" as="geometry" />
        </mxCell>
        <mxCell id="a_NJxbyLy0bWbnUy5ZYN-44" value="Paquetes" style="rounded=1;whiteSpace=wrap;html=1;" vertex="1" parent="1">
          <mxGeometry x="670" y="40" width="120" height="60" as="geometry" />
        </mxCell>
        <mxCell id="a_NJxbyLy0bWbnUy5ZYN-47" style="edgeStyle=orthogonalEdgeStyle;rounded=0;orthogonalLoop=1;jettySize=auto;html=1;exitX=1;exitY=0.5;exitDx=0;exitDy=0;entryX=0;entryY=0.5;entryDx=0;entryDy=0;" edge="1" parent="1" source="a_NJxbyLy0bWbnUy5ZYN-45" target="a_NJxbyLy0bWbnUy5ZYN-44">
          <mxGeometry relative="1" as="geometry" />
        </mxCell>
        <mxCell id="a_NJxbyLy0bWbnUy5ZYN-45" value="Distribuyen" style="rhombus;whiteSpace=wrap;html=1;" vertex="1" parent="1">
          <mxGeometry x="430" y="30" width="110" height="80" as="geometry" />
        </mxCell>
        <mxCell id="a_NJxbyLy0bWbnUy5ZYN-48" value="&lt;u&gt;(PK) id_Paquete&lt;/u&gt;" style="ellipse;whiteSpace=wrap;html=1;" vertex="1" parent="1">
          <mxGeometry x="560" y="120" width="120" height="50" as="geometry" />
        </mxCell>
        <mxCell id="a_NJxbyLy0bWbnUy5ZYN-49" value="Código paquete" style="ellipse;whiteSpace=wrap;html=1;" vertex="1" parent="1">
          <mxGeometry x="560" y="190" width="120" height="50" as="geometry" />
        </mxCell>
        <mxCell id="a_NJxbyLy0bWbnUy5ZYN-50" value="Descripción" style="ellipse;whiteSpace=wrap;html=1;" vertex="1" parent="1">
          <mxGeometry x="570" y="260" width="100" height="50" as="geometry" />
        </mxCell>
        <mxCell id="a_NJxbyLy0bWbnUy5ZYN-51" value="Destinatario" style="ellipse;whiteSpace=wrap;html=1;" vertex="1" parent="1">
          <mxGeometry x="765" y="280" width="90" height="40" as="geometry" />
        </mxCell>
        <mxCell id="a_NJxbyLy0bWbnUy5ZYN-52" value="&lt;u&gt;(FK) id_Camionero&lt;/u&gt;" style="ellipse;whiteSpace=wrap;html=1;" vertex="1" parent="1">
          <mxGeometry x="750" y="125" width="120" height="50" as="geometry" />
        </mxCell>
        <mxCell id="a_NJxbyLy0bWbnUy5ZYN-53" value="&lt;u&gt;(FK) id_Provincia&lt;/u&gt;" style="ellipse;whiteSpace=wrap;html=1;" vertex="1" parent="1">
          <mxGeometry x="750" y="205" width="120" height="50" as="geometry" />
        </mxCell>
        <mxCell id="a_NJxbyLy0bWbnUy5ZYN-63" style="edgeStyle=orthogonalEdgeStyle;rounded=0;orthogonalLoop=1;jettySize=auto;html=1;exitX=0.5;exitY=1;exitDx=0;exitDy=0;entryX=0.5;entryY=0;entryDx=0;entryDy=0;" edge="1" parent="1" source="a_NJxbyLy0bWbnUy5ZYN-60" target="a_NJxbyLy0bWbnUy5ZYN-61">
          <mxGeometry relative="1" as="geometry" />
        </mxCell>
        <mxCell id="a_NJxbyLy0bWbnUy5ZYN-60" value="Llegan a" style="rhombus;whiteSpace=wrap;html=1;" vertex="1" parent="1">
          <mxGeometry x="980" y="35" width="80" height="70" as="geometry" />
        </mxCell>
        <mxCell id="a_NJxbyLy0bWbnUy5ZYN-66" style="edgeStyle=orthogonalEdgeStyle;rounded=0;orthogonalLoop=1;jettySize=auto;html=1;exitX=0.25;exitY=1;exitDx=0;exitDy=0;entryX=1;entryY=0;entryDx=0;entryDy=0;" edge="1" parent="1" source="a_NJxbyLy0bWbnUy5ZYN-61" target="a_NJxbyLy0bWbnUy5ZYN-64">
          <mxGeometry relative="1" as="geometry" />
        </mxCell>
        <mxCell id="a_NJxbyLy0bWbnUy5ZYN-67" style="edgeStyle=orthogonalEdgeStyle;rounded=0;orthogonalLoop=1;jettySize=auto;html=1;exitX=0.75;exitY=1;exitDx=0;exitDy=0;entryX=0.5;entryY=0;entryDx=0;entryDy=0;" edge="1" parent="1" source="a_NJxbyLy0bWbnUy5ZYN-61" target="a_NJxbyLy0bWbnUy5ZYN-65">
          <mxGeometry relative="1" as="geometry" />
        </mxCell>
        <mxCell id="a_NJxbyLy0bWbnUy5ZYN-61" value="Provincias" style="rounded=1;whiteSpace=wrap;html=1;" vertex="1" parent="1">
          <mxGeometry x="960" y="230" width="120" height="60" as="geometry" />
        </mxCell>
        <mxCell id="a_NJxbyLy0bWbnUy5ZYN-64" value="&lt;u&gt;(PK) id_Provincia&lt;/u&gt;" style="ellipse;whiteSpace=wrap;html=1;" vertex="1" parent="1">
          <mxGeometry x="880" y="340" width="120" height="50" as="geometry" />
        </mxCell>
        <mxCell id="a_NJxbyLy0bWbnUy5ZYN-65" value="Nombre" style="ellipse;whiteSpace=wrap;html=1;" vertex="1" parent="1">
          <mxGeometry x="1030" y="340" width="70" height="50" as="geometry" />
        </mxCell>
        <mxCell id="a_NJxbyLy0bWbnUy5ZYN-68" value="1:1" style="text;html=1;align=center;verticalAlign=middle;resizable=0;points=[];autosize=1;strokeColor=none;fillColor=none;" vertex="1" parent="1">
          <mxGeometry x="790" y="40" width="40" height="30" as="geometry" />
        </mxCell>
        <mxCell id="a_NJxbyLy0bWbnUy5ZYN-69" value="N:1" style="text;html=1;align=center;verticalAlign=middle;resizable=0;points=[];autosize=1;strokeColor=none;fillColor=none;" vertex="1" parent="1">
          <mxGeometry x="1020" y="200" width="40" height="30" as="geometry" />
        </mxCell>
        <mxCell id="a_NJxbyLy0bWbnUy5ZYN-70" value="1:N" style="text;html=1;align=center;verticalAlign=middle;resizable=0;points=[];autosize=1;strokeColor=none;fillColor=none;" vertex="1" parent="1">
          <mxGeometry x="1030" y="28" width="40" height="30" as="geometry" />
        </mxCell>
        <mxCell id="a_NJxbyLy0bWbnUy5ZYN-71" value="1:1" style="text;html=1;align=center;verticalAlign=middle;resizable=0;points=[];autosize=1;strokeColor=none;fillColor=none;" vertex="1" parent="1">
          <mxGeometry x="625" y="40" width="40" height="30" as="geometry" />
        </mxCell>
        <mxCell id="a_NJxbyLy0bWbnUy5ZYN-72" value="1:N" style="text;html=1;align=center;verticalAlign=middle;resizable=0;points=[];autosize=1;strokeColor=none;fillColor=none;" vertex="1" parent="1">
          <mxGeometry x="200" y="40" width="40" height="30" as="geometry" />
        </mxCell>
        <mxCell id="a_NJxbyLy0bWbnUy5ZYN-73" value="N:1" style="text;html=1;align=center;verticalAlign=middle;resizable=0;points=[];autosize=1;strokeColor=none;fillColor=none;" vertex="1" parent="1">
          <mxGeometry x="465" width="40" height="30" as="geometry" />
        </mxCell>
        <mxCell id="a_NJxbyLy0bWbnUy5ZYN-74" value="1:N" style="text;html=1;align=center;verticalAlign=middle;resizable=0;points=[];autosize=1;strokeColor=none;fillColor=none;" vertex="1" parent="1">
          <mxGeometry x="140" y="100" width="40" height="30" as="geometry" />
        </mxCell>
        <mxCell id="a_NJxbyLy0bWbnUy5ZYN-75" value="N:M" style="text;html=1;align=center;verticalAlign=middle;resizable=0;points=[];autosize=1;strokeColor=none;fillColor=none;" vertex="1" parent="1">
          <mxGeometry x="50" y="475" width="50" height="30" as="geometry" />
        </mxCell>
        <mxCell id="a_NJxbyLy0bWbnUy5ZYN-76" value="N:1" style="text;html=1;align=center;verticalAlign=middle;resizable=0;points=[];autosize=1;strokeColor=none;fillColor=none;" vertex="1" parent="1">
          <mxGeometry x="100" y="650" width="40" height="30" as="geometry" />
        </mxCell>
      </root>
    </mxGraphModel>
  </diagram>
</mxfile>
